<?xml version="1.0" encoding="UTF-8"?>
<svg width="23px" height="31px" viewBox="0 0 23 31" version="1.1" xmlns="http://www.w3.org/2000/svg" xmlns:xlink="http://www.w3.org/1999/xlink">
    <!-- Generator: Sketch 43 (38999) - http://www.bohemiancoding.com/sketch -->
    <title>password-icon</title>
    <desc>Created with Sketch.</desc>
    <defs></defs>
    <g id="Page-1" stroke="none" stroke-width="1" fill="none" fill-rule="evenodd">
        <g id="17_SignIn_SignUp" transform="translate(-108.000000, -656.000000)" fill="#FFFFFF">
            <g id="Password" transform="translate(75.000000, 621.000000)">
                <path d="M49.0471,44.246037 L49.0471,49.6848148 L39.9529,49.6848148 L39.9529,44.246037 L39.96785,44.246037 C39.96325,44.1553333 39.9529,44.0657778 39.9529,43.9739259 C39.9529,41.4215926 41.9884,39.3514815 44.49885,39.3514815 C47.0093,39.3514815 49.0471,41.4215926 49.0471,43.9739259 C49.0471,44.0657778 49.03905,44.1553333 49.03445,44.246037 L49.0471,44.246037 Z M54.39575,49.6848148 L53.3274,49.6848148 L53.3274,44.246037 L53.3136,44.246037 C53.3159,44.1553333 53.3274,44.0657778 53.3274,43.9739259 C53.3274,39.0185185 49.3737,35 44.49885,35 C39.62745,35 35.67605,39.0185185 35.67605,43.9739259 C35.67605,44.0657778 35.6841,44.1553333 35.6864,44.246037 L35.67605,44.246037 L35.67605,49.6848148 L34.60425,49.6848148 C33.71875,49.6848148 33,50.415037 33,51.3151852 L33,64.3684815 C33,65.2709259 33.7176,66 34.60425,66 L54.39575,66 C55.28125,66 56,65.2709259 56,64.3684815 L56,51.3151852 C56,50.415037 55.28125,49.6848148 54.39575,49.6848148 L54.39575,49.6848148 Z" id="password-icon"></path>
            </g>
        </g>
    </g>
</svg>