<?xml version="1.0" encoding="UTF-8"?>
<svg width="26px" height="30px" viewBox="0 0 26 30" version="1.1" xmlns="http://www.w3.org/2000/svg" xmlns:xlink="http://www.w3.org/1999/xlink">
    <!-- Generator: Sketch 43 (38999) - http://www.bohemiancoding.com/sketch -->
    <title>user-icon</title>
    <desc>Created with Sketch.</desc>
    <defs></defs>
    <g id="Page-1" stroke="none" stroke-width="1" fill="none" fill-rule="evenodd">
        <g id="17_SignIn_SignUp" transform="translate(-107.000000, -526.000000)" fill="#FFFFFF">
            <g id="Username" transform="translate(75.000000, 491.000000)">
                <path d="M39.8574849,47.2015726 C42.7199214,50.1875753 47.3445297,50.2626319 50.2794013,47.3541878 L50.3530853,47.2778802 C52.8845682,44.7509739 53.1430866,40.656635 50.9038421,37.8232475 C47.85782,33.9953597 42.2066311,34.0729182 39.2705106,37.9771136 C37.2148516,40.7329426 37.4359036,44.6746663 39.8212673,47.1627934 L39.8574849,47.2015726 Z M57.3992749,59.908659 C56.5188134,54.9336558 52.3725267,51.2959115 47.5281153,51.2959115 L42.5001182,51.2959115 C37.5458052,51.2959115 33.362052,55.0474917 32.5540257,60.1388327 C32.150637,62.7032673 34.0589279,65 36.5179757,65 L53.4727914,65 C55.9680567,65 57.8763477,62.6269597 57.4367414,60.0612742 L57.3992749,59.908659 Z" id="user-icon"></path>
            </g>
        </g>
    </g>
</svg>